<svg version="1" xmlns="http://www.w3.org/2000/svg" width="666.667" height="666.667" viewBox="0 0 500.000000 500.000000"><path d="M417.7 59.8c-2.8 1.9-7.3 7.9-52.3 70.2-12.2 16.8-35.9 49.6-52.9 73-16.9 23.3-30.9 42.9-31.1 43.5-.3 1 22.6 18 24.4 18 .9 0 6.9-8.7 46.6-67.5 8-11.8 18.5-27.4 23.3-34.5 4.9-7.2 15.1-22.2 22.8-33.5 7.6-11.3 18.5-27.3 24.1-35.6 11.4-16.6 12.6-19.1 12.6-24.8-.1-8.1-10.7-13.4-17.5-8.8zM180.1 105.5c-.2 4.3-4.3 12.7-8.4 16.9-3.6 3.6-12.8 8.6-16.6 8.9-2.6.2-1.6 1.7 1.1 1.7 3 0 11.8 4.7 15.4 8.2 3.5 3.3 6.8 9.4 8.2 14.8l.9 3.5.8-3.5c2.5-11.4 13.2-21.1 26-23.6l4-.8-4.3-.7c-12.2-2.2-21.5-11-25.7-24.3-1.2-3.9-1.3-4-1.4-1.1zM238.1 173.1c-1.5 5-8.8 12.5-13.1 13.4-4 .9-4.6 2.1-1.2 3 6.8 1.7 15.2 10.5 15.2 15.9 0 1.3.9.1 2.4-2.9 1.2-2.8 3.8-6.4 5.7-8.1 3.2-2.7 5.1-3.7 11.4-5.9 1.7-.6 1.3-.9-2.2-2-2.3-.7-5.4-2.2-7-3.5-3.5-2.7-8.3-9.7-8.3-12.2 0-3.2-1.6-1.9-2.9 2.3zM129.6 193c-1.4 9-8.2 18.9-16.1 23.6-2.4 1.4-7.2 3.4-10.7 4.4-4.8 1.4-5.6 1.9-3.3 1.9 4.2.2 13.6 4.2 18.3 8 5.1 4 9.8 11.3 11.4 17.8l1.3 5.1 1.7-5.7c3.3-11 13.2-20.3 25-23.9 5.4-1.6 7.6-3.2 4.4-3.2-3.9 0-13.3-4.8-18.4-9.4-5.2-4.8-11.2-14.7-11.2-18.6 0-.8-.4-2.1-.9-2.8-.5-.9-1 0-1.5 2.8zM251.5 262.7c-5.4 5.4-7.8 10.8-7.1 15.9l.5 4.2-6.2 3c-21.9 10.3-51.4 15.3-92.2 15.5-20.4.2-45.6-.7-48.7-1.7-.7-.3-4.2-.7-7.8-1.1-7.4-.7-16.7-2.1-22.5-3.5-2.2-.5-4.2-.7-4.4-.4-1.1 1 3.1 14.1 6.6 20.9 4.1 8 7.7 13.4 12.4 18.8 3 3.3 4.2 3.9 9.9 4.8 8.3 1.4 35 1.8 45.5.8 4.4-.4 8.1-.6 8.2-.5.2.2-2.3 1.7-5.5 3.4-7.1 3.8-20.6 7.8-33.2 9.8-5.2.8-9.6 1.7-9.9 1.9-.7.8 25.2 25.7 37.3 35.9l11.7 10 5.2-.3c11.8-.5 33.1-9.9 51.4-22.7 5.8-4.1 10.7-7.4 10.9-7.4 1.1 0-3 6.4-7.7 12.2-7.8 9.6-21.9 22.8-29.8 27.8-3.8 2.5-7 4.8-7 5.2-.1.4 4.1 3.5 9.2 6.9 10.7 7.1 31.4 17.4 43.9 21.8l8.6 3 2.5-3.8c3.8-5.7 10.3-19 15.1-30.9 5-12.3 10.6-28.5 10.6-30.7 0-.8.5-1.5 1.1-1.5 1.7 0 .8 17.3-1.6 30.8-1.1 6.4-5.6 22.2-8.4 30-1.7 4.6-3.1 9-3.1 9.7 0 2.3 7.8 3.8 20.3 3.9l11.8.1 3.3-3.6c4.2-4.5 7.2-12.4 9.3-24.7 2.8-15.9 2.4-66.1-.7-94.2-.5-4.7-1.2-11.3-1.6-14.8-.6-5.8-.6-6.2 1.4-6.2 2.4 0 6.4-4.5 9.8-11.1 2.6-5.3 3-8 1.3-11-1-1.9-32.8-26.2-37.6-28.7-4.3-2.4-8.8-1.5-12.8 2.5z"/></svg>